<?xml version="1.0" encoding="UTF-8"?>
<svg xmlns="http://www.w3.org/2000/svg" width="349" height="192" viewBox="0 0 349 192">
<defs>
<marker id="arrowhead" markerWidth="10" markerHeight="7" refX="9" refY="3.5" orient="auto">
<polygon points="0 0, 10 3.5, 0 7" fill="#2a6f97"/>
</marker>
</defs>
<rect width="100%" height="100%" fill="#ffffff"/>
<path d="M 174.5 50.0 L 174.5 74.0 L 62.0 74.0 L 62.0 98.0" fill="none" stroke="#5b6573" stroke-width="2"/>
<path d="M 174.5 50.0 L 174.5 74.0 L 174.5 74.0 L 174.5 98.0" fill="none" stroke="#5b6573" stroke-width="2"/>
<path d="M 174.5 50.0 L 174.5 74.0 L 287.0 74.0 L 287.0 98.0" fill="none" stroke="#5b6573" stroke-width="2"/>
<rect x="124.0" y="6.0" width="101" height="44" rx="10" ry="10" fill="#0b6e4f" stroke="#0b6e4f" stroke-width="2"/>
<text x="174.5" y="29.0" text-anchor="middle" dominant-baseline="middle" font-family="Arial, sans-serif" font-size="18" font-weight="600" fill="#ffffff">20 | 40</text>
<rect x="28.0" y="98.0" width="68" height="44" rx="10" ry="10" fill="#edf7f3" stroke="#55a37a" stroke-width="2"/>
<text x="62.0" y="121.0" text-anchor="middle" dominant-baseline="middle" font-family="Arial, sans-serif" font-size="18" font-weight="600" fill="#123524">&lt; 20</text>
<rect x="124.0" y="98.0" width="101" height="44" rx="10" ry="10" fill="#edf7f3" stroke="#55a37a" stroke-width="2"/>
<text x="174.5" y="121.0" text-anchor="middle" dominant-baseline="middle" font-family="Arial, sans-serif" font-size="18" font-weight="600" fill="#123524">20 ~ 40</text>
<rect x="253.0" y="98.0" width="68" height="44" rx="10" ry="10" fill="#edf7f3" stroke="#55a37a" stroke-width="2"/>
<text x="287.0" y="121.0" text-anchor="middle" dominant-baseline="middle" font-family="Arial, sans-serif" font-size="18" font-weight="600" fill="#123524">&gt; 40</text>
</svg>
