<?xml version="1.0" encoding="UTF-8"?>
<svg xmlns="http://www.w3.org/2000/svg" width="428" height="284" viewBox="0 0 428 284">
<defs>
<marker id="arrowhead" markerWidth="10" markerHeight="7" refX="9" refY="3.5" orient="auto">
<polygon points="0 0, 10 3.5, 0 7" fill="#2a6f97"/>
</marker>
</defs>
<rect width="100%" height="100%" fill="#ffffff"/>
<path d="M 214.0 50.0 L 214.0 74.0 L 134.0 74.0 L 134.0 98.0" fill="none" stroke="#5b6573" stroke-width="2"/>
<path d="M 214.0 50.0 L 214.0 74.0 L 334.0 74.0 L 334.0 98.0" fill="none" stroke="#5b6573" stroke-width="2"/>
<path d="M 134.0 142.0 L 134.0 166.0 L 54.0 166.0 L 54.0 190.0" fill="none" stroke="#5b6573" stroke-width="2"/>
<path d="M 134.0 142.0 L 134.0 166.0 L 134.0 166.0 L 134.0 190.0" fill="none" stroke="#5b6573" stroke-width="2"/>
<path d="M 134.0 142.0 L 134.0 166.0 L 214.0 166.0 L 214.0 190.0" fill="none" stroke="#5b6573" stroke-width="2"/>
<path d="M 334.0 142.0 L 334.0 166.0 L 294.0 166.0 L 294.0 190.0" fill="none" stroke="#5b6573" stroke-width="2"/>
<path d="M 334.0 142.0 L 334.0 166.0 L 374.0 166.0 L 374.0 190.0" fill="none" stroke="#5b6573" stroke-width="2"/>
<rect x="188.0" y="6.0" width="52" height="44" rx="10" ry="10" fill="#1d3557" stroke="#1d3557" stroke-width="2"/>
<text x="214.0" y="29.0" text-anchor="middle" dominant-baseline="middle" font-family="Arial, sans-serif" font-size="18" font-weight="600" fill="#ffffff">15</text>
<rect x="94.5" y="98.0" width="79" height="44" rx="10" ry="10" fill="#eef6ff" stroke="#457b9d" stroke-width="2"/>
<text x="134.0" y="121.0" text-anchor="middle" dominant-baseline="middle" font-family="Arial, sans-serif" font-size="18" font-weight="600" fill="#16324f">2 | 7</text>
<rect x="308.0" y="98.0" width="52" height="44" rx="10" ry="10" fill="#eef6ff" stroke="#457b9d" stroke-width="2"/>
<text x="334.0" y="121.0" text-anchor="middle" dominant-baseline="middle" font-family="Arial, sans-serif" font-size="18" font-weight="600" fill="#16324f">30</text>
<rect x="28.0" y="190.0" width="52" height="44" rx="10" ry="10" fill="#fff4dd" stroke="#e9a400" stroke-width="2"/>
<text x="54.0" y="213.0" text-anchor="middle" dominant-baseline="middle" font-family="Arial, sans-serif" font-size="18" font-weight="600" fill="#5c3b00">1</text>
<rect x="108.0" y="190.0" width="52" height="44" rx="10" ry="10" fill="#fff4dd" stroke="#e9a400" stroke-width="2"/>
<text x="134.0" y="213.0" text-anchor="middle" dominant-baseline="middle" font-family="Arial, sans-serif" font-size="18" font-weight="600" fill="#5c3b00">5</text>
<rect x="188.0" y="190.0" width="52" height="44" rx="10" ry="10" fill="#fff4dd" stroke="#e9a400" stroke-width="2"/>
<text x="214.0" y="213.0" text-anchor="middle" dominant-baseline="middle" font-family="Arial, sans-serif" font-size="18" font-weight="600" fill="#5c3b00">9</text>
<rect x="268.0" y="190.0" width="52" height="44" rx="10" ry="10" fill="#fff4dd" stroke="#e9a400" stroke-width="2"/>
<text x="294.0" y="213.0" text-anchor="middle" dominant-baseline="middle" font-family="Arial, sans-serif" font-size="18" font-weight="600" fill="#5c3b00">20</text>
<rect x="348.0" y="190.0" width="52" height="44" rx="10" ry="10" fill="#fff4dd" stroke="#e9a400" stroke-width="2"/>
<text x="374.0" y="213.0" text-anchor="middle" dominant-baseline="middle" font-family="Arial, sans-serif" font-size="18" font-weight="600" fill="#5c3b00">90</text>
</svg>
