<?xml version="1.0" encoding="UTF-8"?>
<svg xmlns="http://www.w3.org/2000/svg" width="668" height="376" viewBox="0 0 668 376">
<defs>
<marker id="arrowhead" markerWidth="10" markerHeight="7" refX="9" refY="3.5" orient="auto">
<polygon points="0 0, 10 3.5, 0 7" fill="#2a6f97"/>
</marker>
</defs>
<rect width="100%" height="100%" fill="#ffffff"/>
<path d="M 334.0 50.0 L 334.0 74.0 L 174.0 74.0 L 174.0 98.0" fill="none" stroke="#5b6573" stroke-width="2"/>
<path d="M 334.0 50.0 L 334.0 74.0 L 494.0 74.0 L 494.0 98.0" fill="none" stroke="#5b6573" stroke-width="2"/>
<path d="M 174.0 142.0 L 174.0 166.0 L 94.0 166.0 L 94.0 190.0" fill="none" stroke="#5b6573" stroke-width="2"/>
<path d="M 174.0 142.0 L 174.0 166.0 L 254.0 166.0 L 254.0 190.0" fill="none" stroke="#5b6573" stroke-width="2"/>
<path d="M 494.0 142.0 L 494.0 166.0 L 414.0 166.0 L 414.0 190.0" fill="none" stroke="#5b6573" stroke-width="2"/>
<path d="M 494.0 142.0 L 494.0 166.0 L 574.0 166.0 L 574.0 190.0" fill="none" stroke="#5b6573" stroke-width="2"/>
<path d="M 94.0 234.0 L 94.0 258.0 L 54.0 258.0 L 54.0 282.0" fill="none" stroke="#5b6573" stroke-width="2"/>
<path d="M 94.0 234.0 L 94.0 258.0 L 134.0 258.0 L 134.0 282.0" fill="none" stroke="#5b6573" stroke-width="2"/>
<path d="M 254.0 234.0 L 254.0 258.0 L 214.0 258.0 L 214.0 282.0" fill="none" stroke="#5b6573" stroke-width="2"/>
<path d="M 254.0 234.0 L 254.0 258.0 L 294.0 258.0 L 294.0 282.0" fill="none" stroke="#5b6573" stroke-width="2"/>
<path d="M 414.0 234.0 L 414.0 258.0 L 374.0 258.0 L 374.0 282.0" fill="none" stroke="#5b6573" stroke-width="2"/>
<path d="M 414.0 234.0 L 414.0 258.0 L 454.0 258.0 L 454.0 282.0" fill="none" stroke="#5b6573" stroke-width="2"/>
<path d="M 574.0 234.0 L 574.0 258.0 L 534.0 258.0 L 534.0 282.0" fill="none" stroke="#5b6573" stroke-width="2"/>
<path d="M 574.0 234.0 L 574.0 258.0 L 614.0 258.0 L 614.0 282.0" fill="none" stroke="#5b6573" stroke-width="2"/>
<rect x="308.0" y="6.0" width="52" height="44" rx="10" ry="10" fill="#1d3557" stroke="#1d3557" stroke-width="2"/>
<text x="334.0" y="29.0" text-anchor="middle" dominant-baseline="middle" font-family="Arial, sans-serif" font-size="18" font-weight="600" fill="#ffffff">15</text>
<rect x="148.0" y="98.0" width="52" height="44" rx="10" ry="10" fill="#eef6ff" stroke="#457b9d" stroke-width="2"/>
<text x="174.0" y="121.0" text-anchor="middle" dominant-baseline="middle" font-family="Arial, sans-serif" font-size="18" font-weight="600" fill="#16324f">7</text>
<rect x="468.0" y="98.0" width="52" height="44" rx="10" ry="10" fill="#eef6ff" stroke="#457b9d" stroke-width="2"/>
<text x="494.0" y="121.0" text-anchor="middle" dominant-baseline="middle" font-family="Arial, sans-serif" font-size="18" font-weight="600" fill="#16324f">50</text>
<rect x="68.0" y="190.0" width="52" height="44" rx="10" ry="10" fill="#eef6ff" stroke="#457b9d" stroke-width="2"/>
<text x="94.0" y="213.0" text-anchor="middle" dominant-baseline="middle" font-family="Arial, sans-serif" font-size="18" font-weight="600" fill="#16324f">2</text>
<rect x="228.0" y="190.0" width="52" height="44" rx="10" ry="10" fill="#eef6ff" stroke="#457b9d" stroke-width="2"/>
<text x="254.0" y="213.0" text-anchor="middle" dominant-baseline="middle" font-family="Arial, sans-serif" font-size="18" font-weight="600" fill="#16324f">9</text>
<rect x="388.0" y="190.0" width="52" height="44" rx="10" ry="10" fill="#eef6ff" stroke="#457b9d" stroke-width="2"/>
<text x="414.0" y="213.0" text-anchor="middle" dominant-baseline="middle" font-family="Arial, sans-serif" font-size="18" font-weight="600" fill="#16324f">30</text>
<rect x="548.0" y="190.0" width="52" height="44" rx="10" ry="10" fill="#eef6ff" stroke="#457b9d" stroke-width="2"/>
<text x="574.0" y="213.0" text-anchor="middle" dominant-baseline="middle" font-family="Arial, sans-serif" font-size="18" font-weight="600" fill="#16324f">70</text>
<rect x="28.0" y="282.0" width="52" height="44" rx="10" ry="10" fill="#fff4dd" stroke="#e9a400" stroke-width="2"/>
<text x="54.0" y="305.0" text-anchor="middle" dominant-baseline="middle" font-family="Arial, sans-serif" font-size="18" font-weight="600" fill="#5c3b00">1</text>
<rect x="108.0" y="282.0" width="52" height="44" rx="10" ry="10" fill="#fff4dd" stroke="#e9a400" stroke-width="2"/>
<text x="134.0" y="305.0" text-anchor="middle" dominant-baseline="middle" font-family="Arial, sans-serif" font-size="18" font-weight="600" fill="#5c3b00">5</text>
<rect x="188.0" y="282.0" width="52" height="44" rx="10" ry="10" fill="#fff4dd" stroke="#e9a400" stroke-width="2"/>
<text x="214.0" y="305.0" text-anchor="middle" dominant-baseline="middle" font-family="Arial, sans-serif" font-size="18" font-weight="600" fill="#5c3b00">8</text>
<rect x="268.0" y="282.0" width="52" height="44" rx="10" ry="10" fill="#fff4dd" stroke="#e9a400" stroke-width="2"/>
<text x="294.0" y="305.0" text-anchor="middle" dominant-baseline="middle" font-family="Arial, sans-serif" font-size="18" font-weight="600" fill="#5c3b00">10</text>
<rect x="348.0" y="282.0" width="52" height="44" rx="10" ry="10" fill="#fff4dd" stroke="#e9a400" stroke-width="2"/>
<text x="374.0" y="305.0" text-anchor="middle" dominant-baseline="middle" font-family="Arial, sans-serif" font-size="18" font-weight="600" fill="#5c3b00">20</text>
<rect x="428.0" y="282.0" width="52" height="44" rx="10" ry="10" fill="#fff4dd" stroke="#e9a400" stroke-width="2"/>
<text x="454.0" y="305.0" text-anchor="middle" dominant-baseline="middle" font-family="Arial, sans-serif" font-size="18" font-weight="600" fill="#5c3b00">40</text>
<rect x="508.0" y="282.0" width="52" height="44" rx="10" ry="10" fill="#fff4dd" stroke="#e9a400" stroke-width="2"/>
<text x="534.0" y="305.0" text-anchor="middle" dominant-baseline="middle" font-family="Arial, sans-serif" font-size="18" font-weight="600" fill="#5c3b00">60</text>
<rect x="588.0" y="282.0" width="52" height="44" rx="10" ry="10" fill="#fff4dd" stroke="#e9a400" stroke-width="2"/>
<text x="614.0" y="305.0" text-anchor="middle" dominant-baseline="middle" font-family="Arial, sans-serif" font-size="18" font-weight="600" fill="#5c3b00">90</text>
</svg>
